# xmcd
#
# Track frame offsets: 
#        150
#        11841
#        22175
#        50749
#        65066
#        79689
#        94399
#        109590
#        121335
#        134139
#        148124
#        162031
#        175787
#        188723
#        201553
#        216519
#        229548
#        243360
#        256188
#        265850
#
# Disc length: 3691 seconds
#
# Revision: 3
# Processed by: cddbd v1.5.2PL0 Copyright (c) Steve Scherf et al.
# Submitted via: ExactAudioCopyFreeDBPlugin 1.0
#
DISCID=2e0e6914
DTITLE=Various Artist - Rock 'n' Roll:  The Early Years
DYEAR=2003
DGENRE=Rhythm and Blues
TTITLE0=Louis Prima - Ya Gotta See Baby Tonight
TTITLE1=Louis Prima - Bourbon Street Blues
TTITLE2=Louis Prima - Fee Fie Foo
TTITLE3=Louis Prima - If You Were the Only Girl in the World
TTITLE4=Lionel Hampton - Two Finger Boogie
TTITLE5=Lionel Hampton - Hamp's Boogie Woogie No. 1
TTITLE6=Lionel Hampton - Bouncing at the Beacon
TTITLE7=Lionel Hampton - Three-Quarter Boogie
TTITLE8=Will Bradley Ray McKinley - Chicken Gumboogie
TTITLE9=Will Bradley Ray McKinley - Scrub Me Mama with a Boogie Beat
TTITLE10=Billy Penrose - Billy's Boogie
TTITLE11=Billy Penrose - Boogie in Black and White
TTITLE12=Billy Penrose - Harlem Boogie
TTITLE13=Billy Penrose - Boogie in the Ballroom
TTITLE14=Tommy Dorsey - Boogie Woogie
TTITLE15=Tommy Dorsey - Opus Number Two
TTITLE16=Tommy Dorsey - Mr. Freddy Blues
TTITLE17=Tommy Dorsey - The Honeydripper
TTITLE18=Sugar Chile Robinson - Bouncing Ball Boogie
TTITLE19=Sugar Chile Robinson - Numbers Boogie
EXTD=
EXTT0=Louis Prima
EXTT1=Louis Prima
EXTT2=Luis Prima
EXTT3=Louis Prima
EXTT4=Lionel Hampton
EXTT5=Lionel Hampton
EXTT6=Lionel Hampton
EXTT7=Lionel Hampton
EXTT8=Will Bradley/ Ray McKinley
EXTT9=Will Bradley/ Ray McKinley
EXTT10=Billy Penrose
EXTT11=Billy Penrose
EXTT12=Billy Penrose
EXTT13=Billy Penrose
EXTT14=Tommy Dorsey
EXTT15=Tommy Dorsey
EXTT16=Tommy Dorsey
EXTT17=Tommy Dorsey
EXTT18=Sugar Chile Robinson
EXTT19=Sugar Chile Robinson
PLAYORDER=
